<svg xmlns="http://www.w3.org/2000/svg" viewBox="0 0 14 11">
    <defs>
        <linearGradient id="a" x1="0%" x2="70.7%" y1="0%" y2="70.7%">
            <stop offset="0%" stop-color="#254DDE"/>
            <stop offset="100%" stop-color="#254DDE"/>
        </linearGradient>
        <linearGradient id="b" x1="70.1%" x2="0%" y1="0%" y2="71.3%">
            <stop offset="0%" stop-color="#FE1E9A"/>
            <stop offset="100%" stop-color="#254DDE"/>
        </linearGradient>
    </defs>
    <path fill="url(#a)" d="M1 5c.6-.6 1.4-.6 2 0l3 3c.6.6.6 1.4 0 2-.6.6-1.4.6-2 0L1 7C.4 6.4.4 5.6 1 5z"/>
    <path fill="url(#b)" d="M13 1c.6.6.6 1.4 0 2l-7 7c-.6.6-1.4.6-2 0-.6-.6-.6-1.4 0-2l7-7c.6-.6 1.4-.6 2 0z"/>
</svg>
