<svg  xmlns="http://www.w3.org/2000/svg">
    <!--catygory-->
    <symbol  id="shopping" viewBox="0 0 14 12">
        <path d="M13 5h-1l-1 5-1 1H4l-1-1-1-5H1V4h2l2-4h1v1L4 4h6L8 1V0h1l2 4h2v1zM3 5l1 5h6l1-5H3z"/>
    </symbol>
    <symbol  id="sport" viewBox="0 0 13 13">
        <path d="M11 11c-1 1-2.3 1.6-3.6 1.7H6.2A6 6 0 012.3 11 6 6 0 01.6 7.1a5.7 5.7 0 011.7-4.8 6.1 6.1 0 018.6 0c1.1 1.1 1.7 2.5 1.8 4a5.7 5.7 0 01-1.8 4.7zm.4-3.5c-.6 0-1.1.3-1.6.6l.8 1.4a5 5 0 00.8-2zm-1.6 3l-1-1.7a5 5 0 00-1.4 2.7c.9-.2 1.6-.5 2.4-1zm-3.6 1c.2-1.3.8-2.6 1.8-3.6l-.8-1-3.6 3.6c.8.6 1.7 1 2.6 1zM1.8 5.8c1-.1 2-.6 2.7-1.3l-1.6-1c-.6.7-1 1.5-1 2.3zm2-3.2c.5.3 1 .6 1.3 1 .4-.6.6-1.1.7-1.7-.7 0-1.4.3-2 .7zm1.6 2.7C4.3 6.4 3 7 1.7 7.2c0 1 .4 1.8 1 2.6L6.3 6c-.3-.3-.5-.6-.9-.8zm1.7-3.5c-.1.9-.4 1.7-1 2.5.4.3.8.5 1.1.9l2.4-2.4c-.8-.6-1.6-1-2.5-1zm3.4 1.9L8 6l1 1c.7-.3 1.6-.7 2.5-.8 0-.9-.4-1.7-1-2.5z"/>
    </symbol>
    <symbol  id="location" viewBox="0 0 10 13">
        <path d="M5 12.3c-2.5 0-4.4-5.6-4.4-8C.6 1.9 2.6 0 5 0c2.4 0 4.3 1.9 4.3 4.3s-1.9 8-4.3 8zm0-11a3 3 0 00-3.1 3c0 2.4 2 6.7 3 6.7C6 11 8 6.7 8 4.3a3 3 0 00-3-3zm0 4.3c-.8 0-1.3-.5-1.3-1.2s.5-1.2 1.2-1.2 1.2.5 1.2 1.2S5.6 5.6 5 5.6z"/>
    </symbol>
    <symbol id="wineglass" viewBox="0 0 11 14">
        <path d="M10.7 4.7L9.2 7.4A3.6 3.6 0 014.8 9l-1.6 2.7.5.3c.3.2.4.5.2.8-.1.3-.5.4-.8.2L1 11.8c-.3-.2-.4-.5-.2-.8.2-.3.5-.4.8-.2l.5.3 1.6-2.7a3.6 3.6 0 01-.8-4.7l1.5-2.6C4.7.5 5.4.3 6 .6l4.2 2.5c.6.3.8 1 .4 1.6zm-1.5-.9L6 2c-.3-.2-.7-.1-.9.2L4 4.2c-.7 1.1-.5 2.6.6 3.3 1.2.9 2.8.5 3.6-.7l1.2-2.2c.2-.3 0-.6-.3-.8z"/>
    </symbol>
    <symbol id="dumbbell" viewBox="0 0 12 9">
        <path d="M.8 3.5h10.4c.5 0 .8.3.8.8 0 .4-.3.7-.8.7H.8a.7.7 0 110-1.5z"/>
        <path d="M3.3.5c.4 0 .7.3.7.8v6.5c0 .4-.3.7-.8.7a.7.7 0 01-.7-.8V1.3c0-.4.3-.7.8-.7zM8.8.5c.4 0 .7.3.7.8v6.5c0 .4-.3.7-.8.7a.7.7 0 01-.7-.8V1.3c0-.4.3-.7.8-.7z"/>
        <path d="M2.5 1.5c.6 0 1 .4 1 1v4c0 .6-.4 1-1 1a1 1 0 01-1-1v-4c0-.6.4-1 1-1zM9.5 1.5c.6 0 1 .4 1 1v4c0 .6-.4 1-1 1a1 1 0 01-1-1v-4c0-.6.4-1 1-1z"/>
    </symbol>
    <symbol id="other" viewBox="0 0 11 9">
        <path d="M2.4 3.8a1.8 1.8 0 110-3.7 1.8 1.8 0 010 3.7zM4.2 5.4h2.1c.3 0 .5.2.5.5V8c0 .3-.2.5-.5.5H4.2a.5.5 0 01-.5-.5V5.9c0-.3.2-.5.5-.5zM6.3 1.9L7.8.4c.2-.2.6-.2.7 0l1.6 1.5c.2.2.2.5 0 .7L8.5 4c-.1.2-.5.2-.7 0L6.3 2.6a.5.5 0 010-.7z"/>
    </symbol>
    <!--action_bar-->
    <symbol id="adding"  xmlns="http://www.w3.org/2000/svg" viewBox="0 0 448 512">
        <path d="M416 208H272V64c0-18-14-32-32-32h-32c-18 0-32 14-32 32v144H32c-18 0-32 14-32 32v32c0 18 14 32 32 32h144v144c0 18 14 32 32 32h32c18 0 32-14 32-32V304h144c18 0 32-14 32-32v-32c0-18-14-32-32-32z"/>
    </symbol>
    <symbol id="ok" viewBox="0 0 512 512">
        <path d="M174 439L7 273a26 26 0 010-36l37-36c10-10 26-10 36 0l112 112L432 73c10-10 26-10 36 0l37 36c9 10 9 26 0 36L210 439a26 26 0 01-36 0z"/>
    </symbol>
    <symbol id="ok_adding" viewBox="0 0 23 12">
        <path d="M1 6h2l4 3v2H5L1 8V6z"/>
        <path d="M15 1v2l-8 8H5V9l8-8h2z"/>
        <path d="M8 6h2l4 3v2h-2L8 8V6z"/>
        <path d="M22 1v2l-8 8h-2V9l8-8h2z"/>
    </symbol>
    <symbol id="close" viewBox="0 0 352 512">
        <path d="M243 256l100-100c12-12 12-32 0-45l-22-22a31 31 0 00-45 0L176 189 76 89a31 31 0 00-45 0L9 111a31 31 0 000 45l100 100L9 356a31 31 0 000 45l22 22c13 12 33 12 45 0l100-100 100 100c12 12 32 12 45 0l22-22c12-13 12-33 0-45L243 256z"/>
    </symbol>
</svg>