<svg xmlns="http://www.w3.org/2000/svg" viewBox="0 0 26 26">
    <defs>
        <linearGradient id="calendary" x1="22.641%" x2="0%" y1="0%" y2="97.403%">
            <stop offset="0%" stop-color="rgb(254,166,76)" stop-opacity="1" />
            <stop offset="100%" stop-color="rgb(254,30,154)" stop-opacity="1" />
        </linearGradient>
    </defs>
    <path fill="url(#calendary)" d="M25.921,22.642 C25.921,24.360 24.438,25.999 22.798,25.999 L3.201,25.999 C1.561,25.999 0.78,24.438 0.78,22.642 L0.0,5.543 C0.0,3.903 1.405,2.498 3.44,2.420 L4.996,2.420 L4.996,1.795 C4.996,0.858 5.777,0.0 6.792,0.0 C7.807,0.0 8.588,0.858 8.588,1.795 L8.588,2.420 L17.489,2.420 L17.489,1.795 C17.489,0.858 18.270,0.0 19.285,0.0 C20.300,0.0 21.81,0.780 21.81,1.795 L21.81,2.498 L22.954,2.498 C24.672,2.498 25.999,3.903 25.999,5.543 L25.921,22.642 ZM22.408,6.792 C22.408,6.402 22.96,6.168 21.783,6.168 L21.81,6.168 L21.81,6.792 C21.81,7.807 20.66,8.588 19.129,8.588 C18.192,8.588 17.333,7.807 17.333,6.792 L17.333,6.168 L8.588,6.168 L8.588,6.792 C8.588,7.807 7.807,8.666 6.792,8.666 C5.777,8.666 4.996,7.807 4.996,6.792 L4.996,6.168 L4.294,6.168 C3.903,6.168 3.669,6.480 3.669,6.792 L3.669,9.993 L22.408,9.993 L22.408,6.792 ZM22.408,13.585 L3.669,13.585 L3.669,21.705 C3.669,22.17 3.903,22.330 4.294,22.330 L21.783,22.330 C22.96,22.330 22.408,22.96 22.408,21.705 L22.408,13.585 Z"/>
</svg>
