<svg xmlns="http://www.w3.org/2000/svg" viewBox="0 0 26 23">
    <defs>
        <linearGradient id="c" x1="99.758%" x2="0%" y1="0%" y2="6.955%">
            <stop offset="0%" stop-color="rgb(254,166,76)" stop-opacity="1" />
            <stop offset="100%" stop-color="rgb(254,30,154)" stop-opacity="1" />
        </linearGradient>
    </defs>
    <path fill="url(#c)"
          d="M0.999,17.999 L24.999,17.999 C25.552,17.999 25.999,18.446 25.999,19.0 L25.999,21.999 C25.999,22.552 25.552,22.999 24.999,22.999 L0.999,22.999 C0.446,22.999 0.0,22.552 0.0,21.999 L0.0,19.0 C0.0,18.446 0.446,17.999 0.999,17.999 Z"/>
    <path fill="url(#c)"
          d="M0.999,8.999 L24.999,8.999 C25.552,8.999 25.999,9.446 25.999,9.999 L25.999,12.999 C25.999,13.552 25.552,14.0 24.999,14.0 L0.999,14.0 C0.446,14.0 0.0,13.552 0.0,12.999 L0.0,9.999 C0.0,9.446 0.446,8.999 0.999,8.999 Z"/>
    <path fill="url(#c)"
          d="M0.999,0.0 L24.999,0.0 C25.552,0.0 25.999,0.446 25.999,0.999 L25.999,3.999 C25.999,4.552 25.552,4.999 24.999,4.999 L0.999,4.999 C0.446,4.999 0.0,4.552 0.0,3.999 L0.0,0.999 C0.0,0.446 0.446,0.0 0.999,0.0 Z"/>
</svg>
