<svg xmlns="http://www.w3.org/2000/svg" viewBox="0 0 23 12">
    <path d="M1.142,5.714 L1.142,5.714 C1.774,5.82 2.796,5.82 3.428,5.714 L6.857,9.142 C7.489,9.774 7.489,10.796 6.857,11.428 L6.857,11.428 C6.225,12.60 5.203,12.60 4.571,11.428 L1.142,7.999 C0.510,7.367 0.510,6.346 1.142,5.714 Z"/>
    <path d="M14.856,1.142 L14.856,1.142 C15.489,1.774 15.489,2.796 14.856,3.428 L6.857,11.428 C6.225,12.60 5.203,12.60 4.571,11.428 L4.571,11.428 C3.939,10.796 3.939,9.774 4.571,9.142 L12.571,1.142 C13.203,0.510 14.225,0.510 14.856,1.142 Z"/>
    <path d="M8.142,5.714 L8.142,5.714 C8.774,5.82 9.796,5.82 10.428,5.714 L13.857,9.142 C14.489,9.774 14.489,10.796 13.857,11.428 L13.857,11.428 C13.225,12.60 12.203,12.60 11.571,11.428 L8.142,7.999 C7.510,7.367 7.510,6.346 8.142,5.714 Z"/>
    <path d="M21.857,1.142 L21.857,1.142 C22.489,1.774 22.489,2.796 21.857,3.428 L13.857,11.428 C13.225,12.60 12.203,12.60 11.571,11.428 L11.571,11.428 C10.939,10.796 10.939,9.774 11.571,9.142 L19.571,1.142 C20.203,0.510 21.225,0.510 21.857,1.142 Z"/>
</svg>
