<svg xmlns="http://www.w3.org/2000/svg"  viewBox="0 0 13 13">
    <path d="M11 11c-1 1-2.3 1.6-3.6 1.7H6.2A6 6 0 012.3 11 6 6 0 01.6 7.1a5.7 5.7 0 011.7-4.8 6.1 6.1 0 018.6 0c1.1 1.1 1.7 2.5 1.8 4a5.7 5.7 0 01-1.8 4.7zm.4-3.5c-.6 0-1.1.3-1.6.6l.8 1.4a5 5 0 00.8-2zm-1.6 3l-1-1.7a5 5 0 00-1.4 2.7c.9-.2 1.6-.5 2.4-1zm-3.6 1c.2-1.3.8-2.6 1.8-3.6l-.8-1-3.6 3.6c.8.6 1.7 1 2.6 1zM1.8 5.8c1-.1 2-.6 2.7-1.3l-1.6-1c-.6.7-1 1.5-1 2.3zm2-3.2c.5.3 1 .6 1.3 1 .4-.6.6-1.1.7-1.7-.7 0-1.4.3-2 .7zm1.6 2.7C4.3 6.4 3 7 1.7 7.2c0 1 .4 1.8 1 2.6L6.3 6c-.3-.3-.5-.6-.9-.8zm1.7-3.5c-.1.9-.4 1.7-1 2.5.4.3.8.5 1.1.9l2.4-2.4c-.8-.6-1.6-1-2.5-1zm3.4 1.9L8 6l1 1c.7-.3 1.6-.7 2.5-.8 0-.9-.4-1.7-1-2.5z"/>
</svg>
